<svg width="32" height="32" viewBox="0 0 32 32" fill="none" xmlns="http://www.w3.org/2000/svg">
<path d="M6.77333 22.8866C7.55779 21.2065 9.02667 20.3821 11.1333 20.3866H25.1333L28 9.63992H9.02667C6.51324 9.65424 4.37134 7.81914 4 5.33325M10.6667 22.6666C9.8573 22.6666 9.12771 23.1544 8.81846 23.9024C8.50921 24.6504 8.68128 25.511 9.25435 26.0826C9.82742 26.6542 10.6885 26.824 11.4357 26.5128C12.1828 26.2016 12.6688 25.4707 12.6667 24.6614C12.6667 24.1314 12.4558 23.6232 12.0806 23.249C11.7054 22.8748 11.1966 22.6652 10.6667 22.6666ZM22 22.6666C21.1906 22.6666 20.461 23.1544 20.1518 23.9024C19.8425 24.6504 20.0146 25.511 20.5877 26.0826C21.1608 26.6542 22.0218 26.824 22.769 26.5128C23.5162 26.2016 24.0021 25.4707 24 24.6614C24 24.1314 23.7891 23.6232 23.4139 23.249C23.0387 22.8748 22.53 22.6652 22 22.6666ZM9.53333 12.2066L11.1333 20.3866L9.53333 12.2066Z" stroke="white" stroke-width="1.6" stroke-linecap="round" stroke-linejoin="round"/>
</svg>
