<?xml version="1.0" encoding="UTF-8"?>
<svg width="40px" height="40px" viewBox="0 0 40 40" version="1.1" xmlns="http://www.w3.org/2000/svg" xmlns:xlink="http://www.w3.org/1999/xlink">
    <!-- Generator: Sketch 54.1 (76490) - https://sketchapp.com -->
    <title>Brand / Reclame Aqui / Stamp / Bom</title>
    <desc>Created with Sketch.</desc>
    <g id="Brand-/-Reclame-Aqui-/-Stamp-/-Bom" stroke="none" stroke-width="1" fill="none" fill-rule="evenodd">
        <g id="Group" transform="translate(1.000000, 0.000000)">
            <path d="M19.6634,3.7013 C29.9704,3.7013 38.3274,11.8273 38.3274,21.8503 C38.3274,31.8743 29.9704,39.9993 19.6634,39.9993 C9.3554,39.9993 0.9994,31.8743 0.9994,21.8503 C0.9994,11.8273 9.3554,3.7013 19.6634,3.7013" id="Fill-1" fill="#000000"></path>
            <path d="M19.6634,4.5202 C29.2824,4.5202 37.0794,12.2792 37.0794,21.8502 C37.0794,31.4212 29.2824,39.1812 19.6634,39.1812 C10.0454,39.1812 2.2474,31.4212 2.2474,21.8502 C2.2474,12.2792 10.0454,4.5202 19.6634,4.5202" id="Fill-4" fill="#334A9A"></path>
            <path d="M36.5291,21.5778 C36.5291,30.9018 28.9771,38.4598 19.6631,38.4598 C10.3491,38.4598 2.7981,30.8998 2.7981,21.5778 C2.7981,12.2558 10.3451,4.6968 19.6631,4.6968 C28.9821,4.6968 36.5291,12.2578 36.5291,21.5778" id="Fill-6" fill="#425AA5"></path>
            <path d="M14.6873,16.0241 C14.3783,15.8731 14.0303,15.9851 13.7763,16.3061 C13.4373,16.7351 13.4513,17.5151 13.8063,17.9441 C14.1753,18.3911 14.9013,18.5611 15.3763,18.3101 C15.8733,18.0461 16.0983,17.5611 15.9503,17.0341 C15.6313,17.3441 15.2763,17.4571 14.9123,17.1701 C14.5213,16.8661 14.5163,16.4511 14.6873,16.0241 M13.7893,21.9351 C11.8243,21.7991 10.3813,20.9381 9.5413,19.1941 C8.9493,17.9671 8.9493,16.6831 9.3143,15.3901 C9.6993,14.0351 10.4043,12.8921 11.6193,12.1031 C13.5453,10.8581 16.6183,11.0461 18.0033,13.8191 C18.9373,15.6901 19.0003,17.6141 18.0113,19.4751 C17.1203,21.1481 15.6273,21.9091 13.7893,21.9351" id="Fill-8" fill="#FFFFFF"></path>
            <path d="M24.7869,16.0226 C24.4889,15.8676 24.1169,15.9896 23.8699,16.3246 C23.5229,16.7936 23.5699,17.5926 23.9699,18.0066 C24.3939,18.4456 25.1379,18.5586 25.5799,18.2486 C26.0559,17.9166 26.2339,17.4526 26.0439,17.0516 C25.6569,17.3696 25.3739,17.4056 25.0479,17.1946 C24.7219,16.9836 24.6259,16.5716 24.7869,16.0226 M25.5749,21.9246 C23.8009,21.9686 22.0159,21.0986 21.1809,19.2406 C20.2329,17.1266 20.4109,15.0506 21.7329,13.1416 C23.3329,10.8286 26.5569,10.9126 28.3539,12.6126 C29.4339,13.6316 29.9909,14.8996 30.1869,16.3516 C30.3589,17.6526 30.1079,18.8646 29.3379,19.9386 C28.4259,21.2196 27.1409,21.8456 25.5749,21.9246" id="Fill-10" fill="#FFFFFF"></path>
            <path d="M11.3997,12.1457 C11.3997,12.1457 9.5417,11.5687 8.7667,17.3447 C8.7667,17.3447 8.5157,22.5627 13.8517,22.5007 C13.8497,22.5007 7.1787,19.3977 11.3997,12.1457" id="Fill-12" fill="#DFEAEA"></path>
            <path d="M22.9559,11.8986 C22.9559,11.8986 21.0439,11.3226 20.2459,17.0976 C20.2459,17.0976 19.9849,22.3156 25.4779,22.2536 C25.4789,22.2536 18.6109,19.1506 22.9559,11.8986" id="Fill-14" fill="#DFEAEA"></path>
            <path d="M13.7908,21.9352 C15.6288,21.9092 17.1228,21.1482 18.0118,19.4752 C19.0018,17.6152 18.9368,15.6902 18.0048,13.8192 C16.6238,11.0412 13.5448,10.8602 11.6208,12.1032 C10.4048,12.8922 9.6998,14.0352 9.3148,15.3932 C8.9498,16.6832 8.9508,17.9672 9.5408,19.1972 C10.3808,20.9372 11.8238,21.7992 13.7888,21.9352 L13.7908,21.9352 Z M19.3128,16.7072 C19.3048,18.3372 18.8658,19.8152 17.7478,21.0482 C15.8138,23.1792 12.3928,23.3732 10.2348,21.4562 C8.7178,20.1102 8.1888,18.3922 8.4018,16.4152 C8.5718,14.8362 9.1448,13.4242 10.2408,12.2472 C11.8568,10.5062 14.3948,10.0282 16.4088,11.0962 C17.6508,11.7542 18.4018,12.8282 18.8768,14.1152 C19.1808,14.9452 19.3288,15.8242 19.3128,16.7072 L19.3128,16.7072 Z" id="Fill-16" fill="#000000"></path>
            <path d="M25.575,21.9245 C27.141,21.8455 28.427,21.2195 29.342,19.9385 C30.108,18.8645 30.359,17.6525 30.191,16.3515 C29.991,14.8995 29.434,13.6315 28.354,12.6095 C26.555,10.9135 23.333,10.8305 21.733,13.1375 C20.411,15.0475 20.233,17.1285 21.18,19.2375 C22.016,21.0985 23.801,21.9685 25.575,21.9245 M19.996,16.8635 C20.009,15.1405 20.395,13.7105 21.329,12.4525 C23.12,10.0385 26.451,10.0565 28.451,11.6745 C29.799,12.7635 30.517,14.2105 30.838,15.8765 C31.123,17.3555 30.964,18.7835 30.201,20.1025 C29.319,21.6125 27.983,22.4765 26.248,22.7195 C23.212,23.1425 20.498,21.0285 20.076,17.7525 C20.027,17.3995 20.009,17.0435 19.996,16.8635" id="Fill-18" fill="#000000"></path>
            <path d="M10.0457,4.7023 C9.8867,4.7023 9.7277,4.6923 9.5697,4.6703 C9.1017,4.5753 8.9497,4.1873 9.2247,3.8043 C9.3217,3.6673 9.4287,3.5363 9.5437,3.4133 C10.6407,2.2513 11.8617,1.2703 13.3957,0.7243 C13.9487,0.5193 14.5477,0.4733 15.1267,0.5883 C15.2607,0.6213 15.3837,0.6903 15.4827,0.7863 C15.9537,1.2383 15.9857,2.0703 15.4727,2.4663 C14.9647,2.8613 14.4107,3.1933 13.8217,3.4563 C12.9137,3.8573 11.9707,4.1833 11.0337,4.5133 C10.7157,4.6253 10.3787,4.6603 10.0507,4.7313 L10.0457,4.7023 Z" id="Fill-20" fill="#000000"></path>
            <path d="M24.0262,1.089 C24.0262,0.265 24.5452,-0.152 25.2302,0.05 C25.5532,0.149 25.8622,0.291 26.1462,0.473 C27.4712,1.318 28.8012,2.151 29.9562,3.232 C30.1132,3.381 30.3092,3.487 30.4722,3.629 C30.6362,3.77 30.7842,3.945 30.6722,4.197 C30.5542,4.447 30.2872,4.592 30.0112,4.552 C29.5692,4.486 29.1312,4.392 28.7022,4.269 C27.7802,3.965 26.7992,3.815 25.9652,3.275 C25.5652,3.016 25.1592,2.763 24.7812,2.474 C24.2952,2.104 24.0922,1.571 24.0262,1.089" id="Fill-22" fill="#000000"></path>
            <path d="M19.7879,30.5846 C17.8539,30.5376 15.9499,30.3276 14.1019,29.7466 C12.9729,29.3906 11.8939,28.8906 10.8939,28.2576 C10.7059,28.1396 10.5319,27.9946 10.6649,27.7546 C10.8069,27.4976 11.0359,27.5736 11.2379,27.6846 C12.3999,28.3356 13.6399,28.8386 14.9279,29.1816 C17.0639,29.7206 19.2339,29.9556 21.4389,29.7396 C23.7989,29.5096 26.0519,28.9196 28.1409,27.7736 C28.2359,27.7206 28.3379,27.6356 28.4339,27.6366 C28.5849,27.6366 28.7869,27.6536 28.8729,27.7486 C29.0179,27.9076 28.9139,28.0956 28.7439,28.1956 C28.3189,28.4516 27.8939,28.7156 27.4509,28.9366 C25.8159,29.7436 24.0449,30.2376 22.2269,30.3956 C21.4159,30.4696 20.6009,30.5226 19.7879,30.5846" id="Fill-25" fill="#000000"></path>
            <path d="M14.6873,16.0241 C14.5153,16.4461 14.5203,16.8691 14.9123,17.1701 C15.2763,17.4531 15.6343,17.3451 15.9503,17.0341 C16.0983,17.5631 15.8723,18.0461 15.3763,18.3101 C14.9013,18.5601 14.1753,18.3911 13.8063,17.9441 C13.4523,17.5151 13.4373,16.7351 13.7763,16.3061 C14.0313,15.9851 14.3803,15.8731 14.6873,16.0241" id="Fill-27" fill="#000000"></path>
            <path d="M24.7869,16.0226 C24.6239,16.5726 24.7139,16.9736 25.0479,17.1946 C25.3809,17.4156 25.6569,17.3656 26.0439,17.0516 C26.2339,17.4526 26.0559,17.9166 25.5799,18.2486 C25.1359,18.5576 24.3909,18.4456 23.9699,18.0066 C23.5709,17.5896 23.5229,16.7936 23.8699,16.3246 C24.1189,15.9896 24.4909,15.8676 24.7869,16.0226" id="Fill-29" fill="#000000"></path>
        </g>
    </g>
</svg>