<svg width="22" height="19" viewBox="0 0 22 19" fill="none" xmlns="http://www.w3.org/2000/svg">
<path d="M2.70091 16.4287L2.50479 17.4092L2.50479 17.4092L2.70091 16.4287ZM19.2991 16.4287L19.4952 17.4092L19.4952 17.4092L19.2991 16.4287ZM19.413 1.89128L19.6226 0.913479L19.6226 0.913479L19.413 1.89128ZM2.58696 1.89128L2.79648 2.86908L2.79648 2.86908L2.58696 1.89128ZM9 6.08849L9.5145 5.23099C9.20556 5.04563 8.82081 5.04078 8.5073 5.21829C8.19379 5.39579 8 5.72821 8 6.08849H9ZM9 12.0885H8C8 12.4488 8.19379 12.7812 8.5073 12.9587C8.82081 13.1362 9.20557 13.1313 9.5145 12.946L9 12.0885ZM14 9.08849L14.5145 9.94598C14.8157 9.76526 15 9.43975 15 9.08849C15 8.73722 14.8157 8.41172 14.5145 8.23099L14 9.08849ZM0 3.85433V14.3539H2V3.85433H0ZM22 14.3539V3.85432H20V14.3539H22ZM2.50479 17.4092C8.11273 18.5308 13.8873 18.5308 19.4952 17.4092L19.103 15.4481C13.754 16.5179 8.24604 16.5179 2.89702 15.4481L2.50479 17.4092ZM19.6226 0.913479C13.9387 -0.304493 8.0613 -0.304493 2.37743 0.913479L2.79648 2.86908C8.20412 1.71031 13.7959 1.71031 19.2035 2.86908L19.6226 0.913479ZM22 3.85432C22 2.43612 21.0093 1.21063 19.6226 0.913479L19.2035 2.86908C19.6681 2.96864 20 3.3792 20 3.85432H22ZM20 14.3539C20 14.8858 19.6246 15.3438 19.103 15.4481L19.4952 17.4092C20.9516 17.118 22 15.8392 22 14.3539H20ZM0 14.3539C0 15.8392 1.04836 17.118 2.50479 17.4092L2.89702 15.4481C2.37544 15.3438 2 14.8858 2 14.3539H0ZM2 3.85433C2 3.3792 2.33191 2.96864 2.79648 2.86908L2.37743 0.913479C0.990706 1.21063 0 2.43612 0 3.85433H2ZM8 6.08849V12.0885H10V6.08849H8ZM9.5145 12.946L14.5145 9.94598L13.4855 8.23099L8.4855 11.231L9.5145 12.946ZM14.5145 8.23099L9.5145 5.23099L8.4855 6.94598L13.4855 9.94598L14.5145 8.23099Z" fill="white"/>
</svg>
