<svg width="36" height="36" viewBox="0 0 36 36" fill="none" xmlns="http://www.w3.org/2000/svg">
<path d="M10.483 26.4508C10.6086 22.4244 13.9126 19.1996 17.9694 19.1996C21.9918 19.1996 25.2734 22.3692 25.4518 26.3476M18.0001 6C11.3727 6 6.00012 11.3726 6.00012 18C6.00012 24.6274 11.3727 30 18.0001 30C24.6275 30 30.0001 24.6274 30.0001 18C30.0001 11.3726 24.6275 6 18.0001 6ZM22.306 14.8625C22.306 17.2577 20.3644 19.1993 17.9692 19.1993C15.5748 19.1993 13.6332 17.2577 13.6332 14.8625C13.6332 12.4673 15.5748 10.5265 17.9692 10.5265C20.3644 10.5265 22.306 12.4673 22.306 14.8625Z" stroke="white" stroke-width="1.6" stroke-linecap="round" stroke-linejoin="round"/>
</svg>
