<svg width="25" height="24" viewBox="0 0 25 24" fill="none" xmlns="http://www.w3.org/2000/svg">
<path d="M12.5047 5.59998L12.5043 5.59998C8.69469 5.59752 5.60395 8.68296 5.59986 12.4926C5.59576 16.3022 8.67986 19.3942 12.4895 19.4C16.2991 19.4057 19.3925 16.3229 19.3998 12.5129C19.4046 10.6812 18.6802 8.92276 17.3866 7.62582C16.093 6.32887 14.3365 5.59997 12.5047 5.59998Z" stroke="#FF751B" stroke-width="1.2"/>
<path d="M12.5 9V12.76L15.485 15.5" stroke="#FF751B" stroke-width="1.2" stroke-linecap="round" stroke-linejoin="round"/>
<path d="M5.07992 5.285L5.81992 6.02M4.29492 7.54L7.33992 4.5L4.29492 7.54Z" stroke="#FF751B" stroke-width="1.2" stroke-linecap="round" stroke-linejoin="round"/>
<path d="M19.1799 6.02L19.9199 5.285M17.6599 4.5L20.7049 7.54L17.6599 4.5Z" stroke="#FF751B" stroke-width="1.2" stroke-linecap="round" stroke-linejoin="round"/>
</svg>
