<svg width="163" height="49" viewBox="0 0 163 49" fill="none" xmlns="http://www.w3.org/2000/svg">
<path d="M156.251 48.0772H6.00965C2.70434 48.0772 0 45.3728 0 42.0675V6.00965C0 2.70434 2.70434 0 6.00965 0H156.251C159.556 0 162.26 2.70434 162.26 6.00965V42.0675C162.26 45.3728 159.556 48.0772 156.251 48.0772Z" fill="black"/>
<path d="M66.606 34.9834H64.1829L62.8559 30.8103H58.2405L56.9808 34.9834H54.625L59.1924 20.7812H62.0194L66.606 34.9834ZM62.4617 29.0602L61.2597 25.3583C61.1347 24.9736 60.8943 24.089 60.5482 22.6851H60.5001C60.3559 23.2909 60.1347 24.1852 59.827 25.3583L58.6443 29.0602H62.4617Z" fill="white"/>
<path d="M78.346 29.7429C78.346 31.4833 77.8749 32.8583 76.9229 33.868C76.0768 34.7718 75.019 35.2141 73.769 35.2141C72.4132 35.2141 71.4421 34.7334 70.8459 33.7622V39.1373H68.567V28.1082C68.567 27.0121 68.5382 25.8967 68.4805 24.7428H70.4805L70.6055 26.3678H70.644C71.4036 25.1466 72.5575 24.5312 74.096 24.5312C75.3075 24.5312 76.3075 25.012 77.1152 25.964C77.9422 26.9255 78.346 28.1755 78.346 29.7429ZM76.0287 29.8198C76.0287 28.8198 75.8075 28.0025 75.3556 27.3582C74.8652 26.6851 74.2017 26.3486 73.3748 26.3486C72.8171 26.3486 72.3075 26.5409 71.8459 26.9063C71.394 27.2813 71.0863 27.7621 70.9517 28.3679C70.8844 28.6467 70.8459 28.8775 70.8459 29.0602V30.7717C70.8459 31.5121 71.0767 32.1468 71.5286 32.6564C71.9805 33.166 72.5767 33.4256 73.3075 33.4256C74.1633 33.4256 74.8267 33.0891 75.3075 32.4352C75.7883 31.7718 76.0287 30.9064 76.0287 29.8198Z" fill="white"/>
<path d="M90.1156 29.7429C90.1156 31.4833 89.6444 32.8583 88.6925 33.868C87.8463 34.7718 86.7886 35.2141 85.5386 35.2141C84.1828 35.2141 83.2116 34.7334 82.6154 33.7622V39.1373H80.3365V28.1082C80.3365 27.0121 80.3077 25.8967 80.25 24.7428H82.25L82.375 26.3678H82.4135C83.1731 25.1466 84.327 24.5312 85.8655 24.5312C87.077 24.5312 88.0771 25.012 88.8848 25.964C89.7117 26.9255 90.1156 28.1755 90.1156 29.7429ZM87.7982 29.8198C87.7982 28.8198 87.5771 28.0025 87.1251 27.3582C86.6347 26.6851 85.9713 26.3486 85.1443 26.3486C84.5866 26.3486 84.077 26.5409 83.6154 26.9063C83.1635 27.2813 82.8654 27.7621 82.7212 28.3679C82.6539 28.6467 82.6154 28.8775 82.6154 29.0602V30.7717C82.6154 31.5121 82.8462 32.1468 83.2981 32.6564C83.7501 33.166 84.3462 33.4256 85.077 33.4256C85.9328 33.4256 86.6059 33.0891 87.077 32.4352C87.5674 31.7718 87.7982 30.9064 87.7982 29.8198Z" fill="white"/>
<path d="M103.287 31.0014C103.287 32.213 102.863 33.1937 102.027 33.9534C101.104 34.7803 99.8153 35.1938 98.1614 35.1938C96.6326 35.1938 95.4114 34.8957 94.4883 34.3091L95.0171 32.4149C96.0172 33.0014 97.1133 33.2995 98.3057 33.2995C99.1614 33.2995 99.8345 33.1072 100.306 32.7226C100.786 32.338 101.027 31.8187 101.027 31.1745C101.027 30.5975 100.825 30.1168 100.44 29.7225C100.046 29.3283 99.3922 28.9629 98.4787 28.6263C95.9691 27.6936 94.7287 26.3378 94.7287 24.559C94.7287 23.3955 95.171 22.4435 96.046 21.6935C96.921 20.9531 98.0845 20.5781 99.5364 20.5781C100.825 20.5781 101.902 20.7993 102.758 21.2512L102.181 23.0974C101.373 22.6647 100.469 22.4435 99.4499 22.4435C98.6518 22.4435 98.0172 22.6455 97.5653 23.0301C97.1903 23.3859 96.9979 23.809 96.9979 24.3186C96.9979 24.8763 97.2191 25.3474 97.6518 25.7032C98.0268 26.0398 98.7191 26.4052 99.7191 26.7994C100.94 27.2898 101.835 27.8667 102.412 28.5302C102.998 29.1937 103.287 30.0206 103.287 31.0014Z" fill="white"/>
<path d="M110.829 26.455H108.319V31.4262C108.319 32.6859 108.761 33.3205 109.646 33.3205C110.05 33.3205 110.386 33.2821 110.655 33.2147L110.723 34.9455C110.271 35.109 109.684 35.1955 108.954 35.1955C108.05 35.1955 107.357 34.9167 106.848 34.3686C106.338 33.8205 106.088 32.8974 106.088 31.6089V26.4454H104.598V24.7434H106.088V22.8684L108.319 22.1953V24.7434H110.829V26.455Z" fill="white"/>
<path d="M122.119 29.7795C122.119 31.3565 121.667 32.645 120.773 33.6546C119.83 34.6931 118.58 35.2123 117.023 35.2123C115.523 35.2123 114.321 34.7123 113.426 33.7219C112.532 32.7315 112.09 31.4719 112.09 29.9526C112.09 28.3661 112.551 27.068 113.465 26.0583C114.388 25.0487 115.628 24.5391 117.186 24.5391C118.686 24.5391 119.898 25.0391 120.811 26.0391C121.686 27.0006 122.119 28.2507 122.119 29.7795ZM119.763 29.8276C119.763 28.8853 119.561 28.0872 119.157 27.4141C118.677 26.5968 117.994 26.1929 117.109 26.1929C116.196 26.1929 115.494 26.5968 115.023 27.4141C114.609 28.0872 114.417 28.9045 114.417 29.8757C114.417 30.818 114.619 31.6257 115.023 32.2892C115.513 33.1065 116.205 33.5104 117.09 33.5104C117.955 33.5104 118.638 33.0969 119.138 32.27C119.552 31.5777 119.763 30.7699 119.763 29.8276Z" fill="white"/>
<path d="M129.518 26.7428C129.297 26.7044 129.056 26.6851 128.797 26.6851C127.999 26.6851 127.374 26.9832 126.941 27.589C126.566 28.1179 126.374 28.8006 126.374 29.6083V34.9834H124.095V27.964C124.095 26.7813 124.075 25.7043 124.027 24.7428H126.008L126.095 26.7044H126.162C126.402 26.0313 126.777 25.4832 127.297 25.0793C127.806 24.7139 128.354 24.5312 128.941 24.5312C129.152 24.5312 129.345 24.5505 129.508 24.5697L129.518 26.7428Z" fill="white"/>
<path d="M139.696 29.3751C139.696 29.7789 139.667 30.1251 139.609 30.404H132.782C132.811 31.4136 133.138 32.1924 133.773 32.7213C134.35 33.1925 135.09 33.4329 136.003 33.4329C137.013 33.4329 137.936 33.2694 138.763 32.9521L139.119 34.529C138.148 34.9521 137.003 35.1637 135.686 35.1637C134.1 35.1637 132.849 34.6925 131.946 33.7598C131.042 32.8271 130.59 31.5674 130.59 30.0001C130.59 28.4616 131.013 27.1731 131.859 26.1443C132.744 25.0481 133.936 24.5 135.436 24.5C136.907 24.5 138.032 25.0481 138.782 26.1443C139.388 27.0289 139.696 28.0962 139.696 29.3751ZM137.523 28.7885C137.542 28.1155 137.388 27.5289 137.08 27.0385C136.686 26.4039 136.08 26.0866 135.273 26.0866C134.532 26.0866 133.926 26.3943 133.465 27.0097C133.09 27.5001 132.859 28.0962 132.792 28.7789L137.523 28.7885Z" fill="white"/>
<path d="M41.4929 22.4813C41.4641 19.039 44.3103 17.3659 44.4353 17.2889C42.8199 14.9427 40.3198 14.6158 39.4448 14.587C37.3486 14.3658 35.3101 15.8466 34.2428 15.8466C33.1562 15.8466 31.5024 14.6158 29.7331 14.6447C27.4542 14.6831 25.3099 16.0005 24.1465 18.0582C21.7329 22.241 23.5311 28.3949 25.8484 31.7796C27.0119 33.4335 28.3581 35.2893 30.1369 35.222C31.8677 35.1547 32.5216 34.1162 34.6082 34.1162C36.6851 34.1162 37.2909 35.222 39.0986 35.1835C40.9641 35.1547 42.1276 33.52 43.2526 31.8469C44.5891 29.9526 45.1276 28.0776 45.1468 27.9814C45.0988 27.9622 41.5314 26.5968 41.4929 22.4813Z" fill="white"/>
<path d="M38.0818 12.3655C39.0146 11.202 39.6492 9.61541 39.4761 8C38.1299 8.05769 36.4376 8.93271 35.4664 10.077C34.6106 11.0866 33.8414 12.7309 34.0337 14.279C35.553 14.3943 37.1107 13.5097 38.0818 12.3655Z" fill="white"/>
<path d="M61.367 15.7055H60.1747L59.5208 13.6574H57.2515L56.6265 15.7055H55.4727L57.7131 8.72461H59.0977L61.367 15.7055ZM59.3189 12.792L58.7323 10.965C58.6746 10.7823 58.5593 10.34 58.3766 9.6477H58.3573C58.2804 9.94579 58.1842 10.3785 58.0208 10.965L57.4438 12.792H59.3189Z" fill="white"/>
<path d="M66.9851 10.668L65.0812 15.7065H63.9946L62.1484 10.668H63.3504L64.2062 13.3315C64.3504 13.7738 64.4754 14.1969 64.5716 14.6007H64.6004C64.6869 14.2353 64.8119 13.8123 64.9658 13.3315L65.812 10.668H66.9851Z" fill="white"/>
<path d="M71.0391 15.7052L70.9526 15.1282H70.9237C70.5776 15.5898 70.0872 15.8206 69.4526 15.8206C68.5487 15.8206 67.9141 15.1859 67.9141 14.3398C67.9141 13.0994 68.991 12.4551 70.8564 12.4551V12.359C70.8564 11.6955 70.5006 11.3686 69.8083 11.3686C69.3083 11.3686 68.8756 11.4936 68.491 11.7436L68.2602 11.0128C68.7218 10.7243 69.3083 10.5801 69.991 10.5801C71.3084 10.5801 71.9718 11.2724 71.9718 12.6667V14.5225C71.9718 15.0321 71.9911 15.4263 72.0488 15.7244L71.0391 15.7052ZM70.8853 13.1955C69.6449 13.1955 69.0199 13.4936 69.0199 14.2148C69.0199 14.7436 69.3372 15.0032 69.7891 15.0032C70.3564 15.0032 70.8853 14.5705 70.8853 13.9744V13.1955Z" fill="white"/>
<path d="M74.4603 9.83852C74.0853 9.83852 73.7969 9.55005 73.7969 9.16543C73.7969 8.7808 74.095 8.50195 74.4796 8.50195C74.8642 8.50195 75.1719 8.7808 75.1623 9.16543C75.1623 9.56928 74.8738 9.83852 74.4603 9.83852ZM73.9219 10.6655H75.0373V15.6944H73.9219V10.6655Z" fill="white"/>
<path d="M77.0312 8.35938H78.1467V15.696H77.0312V8.35938Z" fill="white"/>
<path d="M82.8946 15.707L82.808 15.13H82.7792C82.433 15.5916 81.9426 15.8224 81.308 15.8224C80.4042 15.8224 79.7695 15.1877 79.7695 14.3416C79.7695 13.1012 80.8465 12.4569 82.7119 12.4569V12.3608C82.7119 11.6973 82.3561 11.3704 81.6638 11.3704C81.1638 11.3704 80.7311 11.4954 80.3465 11.7454L80.1157 11.005C80.5772 10.7165 81.1638 10.5723 81.8465 10.5723C83.1638 10.5723 83.8273 11.2646 83.8273 12.6588V14.5146C83.8273 15.0243 83.8465 15.4185 83.8946 15.7166H82.8946V15.707ZM82.7407 13.1973C81.5003 13.1973 80.8753 13.4954 80.8753 14.2166C80.8753 14.7454 81.1926 15.005 81.6446 15.005C82.2119 15.005 82.7407 14.5723 82.7407 13.9762V13.1973Z" fill="white"/>
<path d="M88.3672 15.8211C87.6557 15.8211 87.1268 15.523 86.7807 14.9268H86.7614L86.6941 15.7057H85.7422C85.771 15.3018 85.7806 14.8499 85.7806 14.3499V8.35938H86.9057V11.4075H86.9249C87.2614 10.8498 87.7903 10.571 88.5307 10.571C89.7423 10.571 90.5884 11.6094 90.5884 13.1191C90.5884 14.6768 89.6461 15.8211 88.3672 15.8211ZM88.1365 11.446C87.4922 11.446 86.9057 12.0037 86.9057 12.7825V13.6672C86.9057 14.3595 87.4345 14.9268 88.1172 14.9268C88.9538 14.9268 89.4538 14.2441 89.4538 13.1575C89.4538 12.1383 88.9346 11.446 88.1365 11.446Z" fill="white"/>
<path d="M92.2461 8.35938H93.3615V15.696H92.2461V8.35938Z" fill="white"/>
<path d="M99.4445 13.4566H96.0887C96.1079 14.4086 96.7425 14.947 97.6752 14.947C98.1752 14.947 98.6272 14.8605 99.031 14.7067L99.2041 15.4855C98.7329 15.6971 98.1752 15.7932 97.5214 15.7932C95.9444 15.7932 95.0117 14.8028 95.0117 13.2547C95.0117 11.7162 95.9637 10.5527 97.3964 10.5527C98.6752 10.5527 99.4926 11.5047 99.4926 12.947C99.4926 13.1489 99.483 13.322 99.4445 13.4566ZM98.4252 12.6585C98.4252 11.8797 98.031 11.3316 97.3195 11.3316C96.6752 11.3316 96.1752 11.8893 96.0983 12.6585H98.4252Z" fill="white"/>
<path d="M106.22 15.8224C104.749 15.8224 103.797 14.7262 103.797 13.2358C103.797 11.6781 104.768 10.5723 106.307 10.5723C107.758 10.5723 108.73 11.6204 108.73 13.1492C108.73 14.7166 107.73 15.8224 106.22 15.8224ZM106.268 11.3896C105.46 11.3896 104.941 12.1492 104.941 13.1973C104.941 14.2358 105.47 14.9858 106.258 14.9858C107.047 14.9858 107.576 14.1781 107.576 13.1685C107.566 12.1492 107.057 11.3896 106.268 11.3896Z" fill="white"/>
<path d="M114.74 15.7049H113.624V12.8106C113.624 11.9163 113.278 11.474 112.605 11.474C111.942 11.474 111.49 12.0413 111.49 12.7048V15.6953H110.374V12.1087C110.374 11.6663 110.365 11.1856 110.336 10.6663H111.317L111.365 11.4452H111.394C111.692 10.9067 112.307 10.5605 112.99 10.5605C114.048 10.5605 114.74 11.3683 114.74 12.6856V15.7049Z" fill="white"/>
<path d="M122.06 11.5142H120.829V13.9565C120.829 14.5815 121.05 14.8892 121.483 14.8892C121.675 14.8892 121.848 14.87 121.983 14.8411L122.012 15.6873C121.791 15.7739 121.502 15.8123 121.146 15.8123C120.262 15.8123 119.742 15.3219 119.742 14.0527V11.5142H119.012V10.6776H119.742V9.75451L120.839 9.41797V10.668H122.069V11.5142" fill="white"/>
<path d="M127.987 15.7057H126.871V12.8306C126.871 11.9267 126.525 11.4748 125.852 11.4748C125.275 11.4748 124.736 11.8691 124.736 12.6671V15.696H123.621V8.35938H124.736V11.3787H124.756C125.112 10.8306 125.612 10.5613 126.265 10.5613C127.333 10.5613 127.987 11.3883 127.987 12.7056V15.7057Z" fill="white"/>
<path d="M133.694 13.4566H130.339C130.358 14.4086 130.993 14.947 131.925 14.947C132.425 14.947 132.877 14.8605 133.281 14.7067L133.454 15.4855C132.983 15.6971 132.425 15.7932 131.771 15.7932C130.194 15.7932 129.262 14.8028 129.262 13.2547C129.262 11.7162 130.214 10.5527 131.646 10.5527C132.925 10.5527 133.743 11.5047 133.743 12.947C133.743 13.1489 133.733 13.322 133.694 13.4566ZM132.675 12.6585C132.675 11.8797 132.281 11.3316 131.569 11.3316C130.925 11.3316 130.416 11.8893 130.348 12.6585H132.675Z" fill="white"/>
</svg>
