<svg width="163" height="49" viewBox="0 0 163 49" fill="none" xmlns="http://www.w3.org/2000/svg">
<path d="M156.251 48.0772H6.00965C2.70434 48.0772 0 45.3728 0 42.0675V6.00965C0 2.70434 2.70434 0 6.00965 0H156.251C159.556 0 162.26 2.70434 162.26 6.00965V42.0675C162.26 45.3728 159.556 48.0772 156.251 48.0772Z" fill="black"/>
<path d="M56.9907 12.3067C56.9907 13.3163 56.6902 14.1216 56.0893 14.7105C55.4162 15.4197 54.5388 15.7802 53.445 15.7802C52.3994 15.7802 51.5099 15.4197 50.7888 14.6985C50.0676 13.9773 49.707 13.0759 49.707 12.0182C49.707 10.9605 50.0676 10.0591 50.7888 9.3379C51.5099 8.61674 52.3994 8.24414 53.445 8.24414C53.9739 8.24414 54.4787 8.34029 54.9474 8.52058C55.4162 8.71289 55.8008 8.97732 56.1013 9.31386L55.4402 9.97492C55.2239 9.71049 54.9354 9.49415 54.5748 9.34992C54.2186 9.19491 53.8335 9.11708 53.445 9.12155C52.6638 9.12155 51.9907 9.39799 51.4498 9.93886C50.909 10.4917 50.6445 11.1768 50.6445 12.0062C50.6445 12.8355 50.909 13.5206 51.4498 14.0735C51.9907 14.6144 52.6518 14.8908 53.445 14.8908C54.1662 14.8908 54.7551 14.6865 55.2359 14.2898C55.7167 13.8932 55.9931 13.3283 56.0652 12.6312H53.445V11.7658H56.9426C56.9667 11.9581 56.9907 12.1384 56.9907 12.3067ZM62.5316 8.41241V9.30184H59.2503V11.5855H62.2071V12.4509H59.2503V14.7346H62.5316V15.624H58.3249V8.41241H62.5316ZM66.4379 9.30184V15.624H65.5124V9.30184H63.4932V8.41241H68.4451V9.30184H66.4379ZM72.9644 15.624H72.0389V8.41241H72.9644V15.624ZM77.075 9.30184V15.624H76.1495V9.30184H74.1302V8.41241H79.0822V9.30184H77.075ZM89.5269 12.0182C89.5269 13.0879 89.1664 13.9773 88.4572 14.6985C87.7361 15.4197 86.8587 15.7802 85.813 15.7802C84.7673 15.7802 83.8899 15.4197 83.1687 14.6985C82.4596 13.9773 82.099 13.0879 82.099 12.0182C82.099 10.9485 82.4596 10.0591 83.1687 9.3379C83.8779 8.61674 84.7553 8.24414 85.813 8.24414C86.8587 8.24414 87.7361 8.60472 88.4572 9.3379C89.1784 10.0711 89.5269 10.9605 89.5269 12.0182ZM83.0606 12.0182C83.0606 12.8475 83.325 13.5446 83.8418 14.0855C84.3707 14.6264 85.0317 14.9028 85.813 14.9028C86.5942 14.9028 87.2553 14.6264 87.7721 14.0855C88.301 13.5446 88.5654 12.8595 88.5654 12.0182C88.5654 11.1768 88.301 10.4917 87.7721 9.95088C87.2433 9.41001 86.5942 9.13357 85.813 9.13357C85.0317 9.13357 84.3707 9.41001 83.8418 9.95088C83.325 10.4917 83.0606 11.1889 83.0606 12.0182ZM91.7505 15.624H90.825V8.41241H91.9548L95.4645 14.0254H95.5005L95.4645 12.6312V8.41241H96.39V15.624H95.4284L91.7625 9.74655H91.7265L91.7625 11.1408V15.624H91.7505Z" fill="white" stroke="white" stroke-width="0.240386" stroke-miterlimit="10"/>
<path d="M81.8965 26.1393C79.072 26.1393 76.7643 28.2908 76.7643 31.2475C76.7643 34.1922 79.072 36.3557 81.8965 36.3557C84.721 36.3557 87.0287 34.1922 87.0287 31.2475C87.0287 28.2908 84.721 26.1393 81.8965 26.1393ZM81.8965 34.3485C80.346 34.3485 79.0119 33.0744 79.0119 31.2475C79.0119 29.4086 80.346 28.1465 81.8965 28.1465C83.447 28.1465 84.7811 29.4086 84.7811 31.2475C84.7811 33.0744 83.435 34.3485 81.8965 34.3485ZM70.6945 26.1393C67.87 26.1393 65.5623 28.2908 65.5623 31.2475C65.5623 34.1922 67.87 36.3557 70.6945 36.3557C73.5191 36.3557 75.8268 34.1922 75.8268 31.2475C75.8268 28.2908 73.5191 26.1393 70.6945 26.1393ZM70.6945 34.3485C69.144 34.3485 67.8099 33.0744 67.8099 31.2475C67.8099 29.4086 69.144 28.1465 70.6945 28.1465C72.245 28.1465 73.5792 29.4086 73.5792 31.2475C73.5792 33.0744 72.245 34.3485 70.6945 34.3485ZM57.3771 27.7138V29.8773H62.5695C62.4132 31.0913 62.0046 31.9927 61.3916 32.6057C60.6344 33.3629 59.4565 34.1922 57.3892 34.1922C54.192 34.1922 51.692 31.6201 51.692 28.423C51.692 25.2258 54.192 22.6537 57.3892 22.6537C59.1079 22.6537 60.3699 23.3268 61.2954 24.2042L62.8219 22.6777C61.5238 21.4398 59.805 20.4902 57.3771 20.4902C53.0021 20.4902 49.3242 24.0479 49.3242 28.435C49.3242 32.81 53.0021 36.3797 57.3771 36.3797C59.7449 36.3797 61.5238 35.6105 62.918 34.1562C64.3483 32.7259 64.793 30.7066 64.793 29.084C64.793 28.5792 64.757 28.1105 64.6729 27.7258H57.3771V27.7138ZM111.837 29.3965C111.416 28.2547 110.118 26.1393 107.462 26.1393C104.829 26.1393 102.642 28.2066 102.642 31.2475C102.642 34.1081 104.805 36.3557 107.714 36.3557C110.058 36.3557 111.416 34.9254 111.969 34.0961L110.226 32.9302C109.649 33.7836 108.856 34.3485 107.714 34.3485C106.572 34.3485 105.755 33.8317 105.238 32.798L112.077 29.9735L111.837 29.3965ZM104.865 31.1033C104.805 29.1321 106.392 28.1225 107.534 28.1225C108.423 28.1225 109.18 28.5672 109.433 29.2042L104.865 31.1033ZM99.3125 36.0552H101.56V21.0311H99.3125V36.0552ZM95.6345 27.2811H95.5504C95.0456 26.6802 94.0841 26.1393 92.8581 26.1393C90.298 26.1393 87.9542 28.3869 87.9542 31.2715C87.9542 34.1321 90.298 36.3677 92.8581 36.3677C94.072 36.3677 95.0456 35.8269 95.5504 35.2019H95.6225V35.935C95.6225 37.8942 94.5769 38.9399 92.8942 38.9399C91.524 38.9399 90.6706 37.9543 90.322 37.1249L88.3629 37.9422C88.9278 39.3004 90.4182 40.9591 92.8942 40.9591C95.5264 40.9591 97.7499 39.4086 97.7499 35.6345V26.4518H95.6225V27.2811H95.6345ZM93.0504 34.3485C91.4999 34.3485 90.2018 33.0504 90.2018 31.2715C90.2018 29.4686 91.4999 28.1585 93.0504 28.1585C94.5769 28.1585 95.7788 29.4807 95.7788 31.2715C95.7908 33.0504 94.5889 34.3485 93.0504 34.3485ZM122.365 21.0311H116.993V36.0552H119.24V30.3581H122.377C124.865 30.3581 127.305 28.5552 127.305 25.6946C127.293 22.834 124.841 21.0311 122.365 21.0311ZM122.414 28.2667H119.228V23.1104H122.414C124.096 23.1104 125.046 24.5047 125.046 25.6826C125.046 26.8605 124.096 28.2667 122.414 28.2667ZM136.284 26.1153C134.661 26.1153 132.978 26.8364 132.281 28.4109L134.277 29.2403C134.697 28.411 135.491 28.1345 136.32 28.1345C137.474 28.1345 138.664 28.8316 138.676 30.0696V30.2259C138.267 29.9975 137.402 29.6489 136.332 29.6489C134.18 29.6489 132.005 30.8268 132.005 33.0264C132.005 35.0336 133.76 36.3317 135.731 36.3317C137.233 36.3317 138.075 35.6586 138.591 34.8653H138.664V36.0192H140.827V30.2619C140.839 27.6057 138.844 26.1153 136.284 26.1153ZM136.007 34.3485C135.274 34.3485 134.253 33.9759 134.253 33.0744C134.253 31.9206 135.527 31.4759 136.632 31.4759C137.618 31.4759 138.087 31.6922 138.676 31.9807C138.592 32.6312 138.276 33.2295 137.785 33.6649C137.295 34.1002 136.663 34.3431 136.007 34.3485ZM148.724 26.4398L146.152 32.9542H146.08L143.411 26.4398H140.995L144.998 35.5504L142.714 40.6105H145.058L151.224 26.4398H148.724ZM128.531 36.0552H130.779V21.0311H128.531V36.0552Z" fill="white"/>
<path d="M24.9021 23.3418L12.1016 36.9236V36.9356C12.2401 37.4501 12.4956 37.9256 12.8482 38.3251C13.2008 38.7245 13.6409 39.0371 14.1343 39.2384C14.6276 39.4397 15.1608 39.5243 15.6922 39.4855C16.2236 39.4467 16.7388 39.2857 17.1977 39.015L17.2338 38.9909L31.6329 30.6856L24.9021 23.3418Z" fill="#EA4335"/>
<path d="M37.8504 21.0338L37.8384 21.0218L31.6244 17.416L24.6172 23.654L31.6485 30.6853L37.8384 27.1156C38.3859 26.8192 38.8434 26.3806 39.1625 25.8461C39.4817 25.3116 39.6508 24.7009 39.6521 24.0783C39.6533 23.4557 39.4866 22.8443 39.1695 22.3085C38.8525 21.7727 38.3968 21.3324 37.8504 21.0338Z" fill="#FBBC04"/>
<path d="M12.1046 11.1523C12.0325 11.4408 11.9844 11.7293 11.9844 12.0418V36.0443C11.9844 36.3568 12.0204 36.6453 12.1046 36.9337L25.3378 23.7005L12.1046 11.1523Z" fill="#4285F4"/>
<path d="M24.9983 24.0362L31.6209 17.4136L17.2338 9.07222C16.7739 8.79721 16.2566 8.63238 15.7223 8.59063C15.1881 8.54888 14.6514 8.63135 14.1544 8.83157C13.6573 9.03179 13.2133 9.34433 12.8572 9.74473C12.5011 10.1451 12.2424 10.6225 12.1016 11.1395L24.9983 24.0362Z" fill="#34A853"/>
</svg>
