<svg width="114" height="62" viewBox="0 0 114 62" fill="none" xmlns="http://www.w3.org/2000/svg">
<path d="M1.19944 10V2.08H6.93544V3.184H2.48344V5.464H5.96344V6.544H2.48344V8.896H7.10344V10H1.19944ZM8.64834 10V4H9.78834L9.84834 5.008C10.0563 4.624 10.3323 4.34 10.6763 4.156C11.0283 3.972 11.4003 3.88 11.7923 3.88C12.2243 3.88 12.6203 3.98 12.9803 4.18C13.3483 4.372 13.6243 4.664 13.8083 5.056C13.9363 4.792 14.1123 4.572 14.3363 4.396C14.5603 4.22 14.8083 4.092 15.0803 4.012C15.3523 3.924 15.6203 3.88 15.8843 3.88C16.2683 3.88 16.6283 3.96 16.9643 4.12C17.3003 4.28 17.5723 4.524 17.7803 4.852C17.9883 5.18 18.0923 5.6 18.0923 6.112V10H16.8083V6.316C16.8083 5.828 16.6923 5.476 16.4603 5.26C16.2283 5.044 15.9323 4.936 15.5723 4.936C15.2923 4.936 15.0323 5.004 14.7923 5.14C14.5603 5.276 14.3723 5.48 14.2283 5.752C14.0843 6.016 14.0123 6.344 14.0123 6.736V10H12.7283V6.316C12.7283 5.828 12.6123 5.476 12.3803 5.26C12.1483 5.044 11.8523 4.936 11.4923 4.936C11.2523 4.936 11.0123 5 10.7723 5.128C10.5323 5.256 10.3323 5.456 10.1723 5.728C10.0123 6 9.93234 6.36 9.93234 6.808V10H8.64834ZM20.039 12.52V4H21.179L21.275 5.68L21.107 5.476C21.203 5.164 21.351 4.888 21.551 4.648C21.751 4.408 21.999 4.22 22.295 4.084C22.599 3.948 22.931 3.88 23.291 3.88C23.779 3.88 24.223 4.004 24.623 4.252C25.023 4.5 25.339 4.856 25.571 5.32C25.803 5.776 25.919 6.332 25.919 6.988C25.919 7.644 25.799 8.208 25.559 8.68C25.327 9.144 25.007 9.5 24.599 9.748C24.199 9.996 23.751 10.12 23.255 10.12C22.743 10.12 22.307 9.988 21.947 9.724C21.587 9.452 21.331 9.108 21.179 8.692L21.323 8.488V12.52H20.039ZM22.979 9.076C23.499 9.076 23.903 8.892 24.191 8.524C24.487 8.156 24.635 7.648 24.635 7C24.635 6.352 24.491 5.844 24.203 5.476C23.915 5.1 23.515 4.912 23.003 4.912C22.667 4.912 22.371 5 22.115 5.176C21.867 5.344 21.671 5.584 21.527 5.896C21.391 6.2 21.323 6.568 21.323 7C21.323 7.424 21.391 7.792 21.527 8.104C21.663 8.416 21.855 8.656 22.103 8.824C22.351 8.992 22.643 9.076 22.979 9.076ZM27.5624 10V4H28.6544L28.7744 5.08C28.9344 4.688 29.1704 4.392 29.4824 4.192C29.8024 3.984 30.1944 3.88 30.6584 3.88C30.7784 3.88 30.8984 3.892 31.0184 3.916C31.1384 3.932 31.2384 3.96 31.3184 4L31.1384 5.128C31.0504 5.096 30.9504 5.072 30.8384 5.056C30.7344 5.032 30.5904 5.02 30.4064 5.02C30.1584 5.02 29.9144 5.088 29.6744 5.224C29.4344 5.352 29.2344 5.548 29.0744 5.812C28.9224 6.076 28.8464 6.412 28.8464 6.82V10H27.5624ZM35.0188 10.12C34.4188 10.12 33.8908 9.996 33.4348 9.748C32.9788 9.5 32.6228 9.144 32.3668 8.68C32.1188 8.208 31.9948 7.648 31.9948 7C31.9948 6.352 32.1188 5.796 32.3668 5.332C32.6228 4.86 32.9748 4.5 33.4228 4.252C33.8708 4.004 34.3788 3.88 34.9468 3.88C35.5308 3.88 36.0268 4 36.4348 4.24C36.8428 4.48 37.1548 4.808 37.3708 5.224C37.5868 5.64 37.6948 6.112 37.6948 6.64C37.6948 6.784 37.6908 6.92 37.6828 7.048C37.6748 7.176 37.6628 7.288 37.6468 7.384H32.8228V6.4H37.0828L36.4468 6.592C36.4468 6.048 36.3108 5.632 36.0388 5.344C35.7668 5.048 35.3948 4.9 34.9228 4.9C34.5788 4.9 34.2788 4.98 34.0228 5.14C33.7668 5.3 33.5708 5.54 33.4348 5.86C33.2988 6.172 33.2308 6.556 33.2308 7.012C33.2308 7.46 33.3028 7.84 33.4468 8.152C33.5908 8.464 33.7948 8.7 34.0588 8.86C34.3228 9.02 34.6348 9.1 34.9948 9.1C35.3948 9.1 35.7188 9.024 35.9668 8.872C36.2148 8.72 36.4108 8.508 36.5548 8.236L37.5748 8.716C37.4308 9.004 37.2348 9.256 36.9868 9.472C36.7468 9.68 36.4588 9.84 36.1228 9.952C35.7868 10.064 35.4188 10.12 35.0188 10.12ZM41.5963 10.12C40.9963 10.12 40.4483 10.004 39.9523 9.772C39.4563 9.54 39.0643 9.212 38.7763 8.788L39.6643 8.02C39.8403 8.348 40.0923 8.612 40.4203 8.812C40.7563 9.004 41.1563 9.1 41.6203 9.1C41.9883 9.1 42.2803 9.036 42.4963 8.908C42.7123 8.78 42.8203 8.6 42.8203 8.368C42.8203 8.216 42.7683 8.084 42.6643 7.972C42.5683 7.852 42.3803 7.76 42.1003 7.696L40.8403 7.432C40.2003 7.304 39.7443 7.1 39.4723 6.82C39.2003 6.532 39.0643 6.168 39.0643 5.728C39.0643 5.4 39.1603 5.096 39.3523 4.816C39.5443 4.536 39.8243 4.312 40.1923 4.144C40.5683 3.968 41.0163 3.88 41.5363 3.88C42.1363 3.88 42.6483 3.988 43.0723 4.204C43.4963 4.412 43.8203 4.712 44.0443 5.104L43.1563 5.848C43.0043 5.528 42.7803 5.292 42.4843 5.14C42.1883 4.98 41.8803 4.9 41.5603 4.9C41.3043 4.9 41.0843 4.932 40.9003 4.996C40.7163 5.06 40.5763 5.148 40.4803 5.26C40.3843 5.372 40.3363 5.504 40.3363 5.656C40.3363 5.816 40.3963 5.956 40.5163 6.076C40.6363 6.196 40.8523 6.288 41.1643 6.352L42.5323 6.64C43.1083 6.752 43.5123 6.944 43.7443 7.216C43.9843 7.48 44.1043 7.804 44.1043 8.188C44.1043 8.572 44.0043 8.912 43.8043 9.208C43.6043 9.496 43.3163 9.72 42.9403 9.88C42.5643 10.04 42.1163 10.12 41.5963 10.12ZM49.1359 6.148C49.1359 5.748 49.0239 5.44 48.7999 5.224C48.5839 5 48.2839 4.888 47.8999 4.888C47.5399 4.888 47.2319 4.972 46.9759 5.14C46.7199 5.308 46.5319 5.58 46.4119 5.956L45.3319 5.5C45.4839 5.012 45.7799 4.62 46.2199 4.324C46.6679 4.028 47.2439 3.88 47.9479 3.88C48.4279 3.88 48.8519 3.96 49.2199 4.12C49.5879 4.272 49.8759 4.504 50.0839 4.816C50.2999 5.128 50.4079 5.528 50.4079 6.016V8.692C50.4079 8.988 50.5559 9.136 50.8519 9.136C50.9959 9.136 51.1359 9.116 51.2719 9.076L51.1999 9.964C51.0159 10.052 50.7839 10.096 50.5039 10.096C50.2479 10.096 50.0159 10.052 49.8079 9.964C49.6079 9.868 49.4479 9.728 49.3279 9.544C49.2159 9.352 49.1599 9.116 49.1599 8.836V8.752L49.4239 8.74C49.3519 9.052 49.2039 9.312 48.9799 9.52C48.7559 9.72 48.4959 9.872 48.1999 9.976C47.9039 10.072 47.6039 10.12 47.2999 10.12C46.9239 10.12 46.5839 10.06 46.2799 9.94C45.9839 9.82 45.7479 9.64 45.5719 9.4C45.4039 9.152 45.3199 8.848 45.3199 8.488C45.3199 8.04 45.4639 7.672 45.7519 7.384C46.0479 7.096 46.4639 6.9 46.9999 6.796L49.3279 6.34L49.3159 7.24L47.6239 7.588C47.2879 7.652 47.0359 7.744 46.8679 7.864C46.6999 7.984 46.6159 8.16 46.6159 8.392C46.6159 8.616 46.6999 8.796 46.8679 8.932C47.0439 9.06 47.2759 9.124 47.5639 9.124C47.7639 9.124 47.9559 9.1 48.1399 9.052C48.3319 9.004 48.5039 8.928 48.6559 8.824C48.8079 8.712 48.9239 8.572 49.0039 8.404C49.0919 8.228 49.1359 8.02 49.1359 7.78V6.148ZM54.7916 10.12C54.1916 10.12 53.6436 10.004 53.1476 9.772C52.6516 9.54 52.2596 9.212 51.9716 8.788L52.8596 8.02C53.0356 8.348 53.2876 8.612 53.6156 8.812C53.9516 9.004 54.3516 9.1 54.8156 9.1C55.1836 9.1 55.4756 9.036 55.6916 8.908C55.9076 8.78 56.0156 8.6 56.0156 8.368C56.0156 8.216 55.9636 8.084 55.8596 7.972C55.7636 7.852 55.5756 7.76 55.2956 7.696L54.0356 7.432C53.3956 7.304 52.9396 7.1 52.6676 6.82C52.3956 6.532 52.2596 6.168 52.2596 5.728C52.2596 5.4 52.3556 5.096 52.5476 4.816C52.7396 4.536 53.0196 4.312 53.3876 4.144C53.7636 3.968 54.2116 3.88 54.7316 3.88C55.3316 3.88 55.8436 3.988 56.2676 4.204C56.6916 4.412 57.0156 4.712 57.2396 5.104L56.3516 5.848C56.1996 5.528 55.9756 5.292 55.6796 5.14C55.3836 4.98 55.0756 4.9 54.7556 4.9C54.4996 4.9 54.2796 4.932 54.0956 4.996C53.9116 5.06 53.7716 5.148 53.6756 5.26C53.5796 5.372 53.5316 5.504 53.5316 5.656C53.5316 5.816 53.5916 5.956 53.7116 6.076C53.8316 6.196 54.0476 6.288 54.3596 6.352L55.7276 6.64C56.3036 6.752 56.7076 6.944 56.9396 7.216C57.1796 7.48 57.2996 7.804 57.2996 8.188C57.2996 8.572 57.1996 8.912 56.9996 9.208C56.7996 9.496 56.5116 9.72 56.1356 9.88C55.7596 10.04 55.3116 10.12 54.7916 10.12ZM65.0695 10.12C64.5735 10.12 64.1215 9.996 63.7135 9.748C63.3135 9.5 62.9975 9.144 62.7655 8.68C62.5335 8.216 62.4175 7.66 62.4175 7.012C62.4175 6.34 62.5415 5.772 62.7895 5.308C63.0375 4.844 63.3695 4.492 63.7855 4.252C64.2015 4.004 64.6575 3.88 65.1535 3.88C65.6655 3.88 66.0975 4.02 66.4495 4.3C66.8015 4.58 67.0375 4.944 67.1575 5.392L67.0135 5.524V1.3H68.2975V10H67.1575L67.0615 8.368L67.2295 8.38C67.1735 8.74 67.0415 9.052 66.8335 9.316C66.6255 9.572 66.3655 9.772 66.0535 9.916C65.7495 10.052 65.4215 10.12 65.0695 10.12ZM65.3455 9.088C65.6895 9.088 65.9855 9 66.2335 8.824C66.4815 8.648 66.6735 8.4 66.8095 8.08C66.9455 7.76 67.0135 7.376 67.0135 6.928C67.0135 6.512 66.9455 6.156 66.8095 5.86C66.6735 5.556 66.4815 5.324 66.2335 5.164C65.9935 5.004 65.7135 4.924 65.3935 4.924C64.8575 4.924 64.4415 5.108 64.1455 5.476C63.8495 5.844 63.7015 6.352 63.7015 7C63.7015 7.648 63.8455 8.16 64.1335 8.536C64.4215 8.904 64.8255 9.088 65.3455 9.088ZM72.893 3.88C73.477 3.88 73.993 4.004 74.441 4.252C74.889 4.5 75.237 4.86 75.485 5.332C75.741 5.796 75.869 6.352 75.869 7C75.869 7.648 75.741 8.208 75.485 8.68C75.237 9.144 74.889 9.5 74.441 9.748C73.993 9.996 73.477 10.12 72.893 10.12C72.309 10.12 71.793 9.996 71.345 9.748C70.897 9.5 70.545 9.144 70.289 8.68C70.033 8.208 69.905 7.648 69.905 7C69.905 6.352 70.033 5.796 70.289 5.332C70.545 4.86 70.897 4.5 71.345 4.252C71.793 4.004 72.309 3.88 72.893 3.88ZM72.893 4.888C72.533 4.888 72.225 4.972 71.969 5.14C71.721 5.3 71.529 5.536 71.393 5.848C71.257 6.16 71.189 6.544 71.189 7C71.189 7.448 71.257 7.832 71.393 8.152C71.529 8.464 71.721 8.704 71.969 8.872C72.225 9.032 72.533 9.112 72.893 9.112C73.253 9.112 73.557 9.032 73.805 8.872C74.053 8.704 74.245 8.464 74.381 8.152C74.517 7.832 74.585 7.448 74.585 7C74.585 6.544 74.517 6.16 74.381 5.848C74.245 5.536 74.053 5.3 73.805 5.14C73.557 4.972 73.253 4.888 72.893 4.888ZM86.6666 2.74L86.8706 3.748C86.8466 3.748 86.8226 3.748 86.7986 3.748C86.7746 3.74 86.7506 3.736 86.7266 3.736C86.3426 3.736 86.0506 3.82 85.8506 3.988C85.6506 4.148 85.5506 4.384 85.5506 4.696L84.9266 4.408C84.9266 4.088 84.9946 3.804 85.1306 3.556C85.2666 3.3 85.4586 3.1 85.7066 2.956C85.9626 2.812 86.2506 2.74 86.5706 2.74C86.5866 2.74 86.6026 2.74 86.6186 2.74C86.6346 2.74 86.6506 2.74 86.6666 2.74ZM84.7706 9.064C85.3786 9.064 85.8506 9.2 86.1866 9.472C86.5226 9.736 86.6906 10.104 86.6906 10.576C86.6906 10.992 86.5586 11.348 86.2946 11.644C86.0306 11.948 85.6706 12.18 85.2146 12.34C84.7666 12.5 84.2506 12.58 83.6666 12.58C82.6826 12.58 81.9546 12.428 81.4826 12.124C81.0106 11.82 80.7746 11.44 80.7746 10.984C80.7746 10.664 80.8866 10.384 81.1106 10.144C81.3426 9.904 81.7306 9.768 82.2746 9.736L82.2026 9.928C81.8666 9.856 81.5946 9.728 81.3866 9.544C81.1866 9.352 81.0866 9.084 81.0866 8.74C81.0866 8.396 81.2186 8.104 81.4826 7.864C81.7466 7.624 82.1186 7.484 82.5986 7.444L83.2706 7.768H83.1266C82.7586 7.8 82.4986 7.884 82.3466 8.02C82.1946 8.156 82.1186 8.308 82.1186 8.476C82.1186 8.676 82.1906 8.824 82.3346 8.92C82.4866 9.016 82.6986 9.064 82.9706 9.064H84.7706ZM83.6666 11.62C84.1066 11.62 84.4666 11.576 84.7466 11.488C85.0346 11.408 85.2466 11.3 85.3826 11.164C85.5266 11.036 85.5986 10.892 85.5986 10.732C85.5986 10.548 85.5226 10.4 85.3706 10.288C85.2266 10.176 84.9626 10.12 84.5786 10.12H82.6466C82.4226 10.12 82.2346 10.176 82.0826 10.288C81.9306 10.408 81.8546 10.568 81.8546 10.768C81.8546 11.032 82.0146 11.24 82.3346 11.392C82.6546 11.544 83.0986 11.62 83.6666 11.62ZM83.6186 3.88C84.1466 3.88 84.6026 3.964 84.9866 4.132C85.3786 4.3 85.6786 4.536 85.8866 4.84C86.1026 5.144 86.2106 5.5 86.2106 5.908C86.2106 6.316 86.1026 6.672 85.8866 6.976C85.6786 7.28 85.3786 7.516 84.9866 7.684C84.6026 7.852 84.1466 7.936 83.6186 7.936C82.7866 7.936 82.1466 7.752 81.6986 7.384C81.2586 7.008 81.0386 6.516 81.0386 5.908C81.0386 5.5 81.1466 5.144 81.3626 4.84C81.5786 4.536 81.8786 4.3 82.2626 4.132C82.6546 3.964 83.1066 3.88 83.6186 3.88ZM83.6186 4.78C83.2506 4.78 82.9426 4.884 82.6946 5.092C82.4546 5.292 82.3346 5.564 82.3346 5.908C82.3346 6.252 82.4546 6.528 82.6946 6.736C82.9426 6.944 83.2506 7.048 83.6186 7.048C83.9946 7.048 84.3026 6.944 84.5426 6.736C84.7906 6.528 84.9146 6.252 84.9146 5.908C84.9146 5.564 84.7906 5.292 84.5426 5.092C84.3026 4.884 83.9946 4.78 83.6186 4.78ZM87.8671 10V4H88.9591L89.0791 5.08C89.2391 4.688 89.4751 4.392 89.7871 4.192C90.1071 3.984 90.4991 3.88 90.9631 3.88C91.0831 3.88 91.2031 3.892 91.3231 3.916C91.4431 3.932 91.5431 3.96 91.6231 4L91.4431 5.128C91.3551 5.096 91.2551 5.072 91.1431 5.056C91.0391 5.032 90.8951 5.02 90.7111 5.02C90.4631 5.02 90.2191 5.088 89.9791 5.224C89.7391 5.352 89.5391 5.548 89.3791 5.812C89.2271 6.076 89.1511 6.412 89.1511 6.82V10H87.8671ZM94.9718 10.12C94.5798 10.12 94.2158 10.048 93.8798 9.904C93.5518 9.76 93.2878 9.528 93.0878 9.208C92.8878 8.888 92.7878 8.472 92.7878 7.96V4H94.0718V7.636C94.0718 8.18 94.1878 8.556 94.4198 8.764C94.6518 8.964 94.9758 9.064 95.3918 9.064C95.5918 9.064 95.7838 9.032 95.9678 8.968C96.1598 8.896 96.3318 8.788 96.4838 8.644C96.6358 8.492 96.7518 8.3 96.8318 8.068C96.9198 7.836 96.9638 7.564 96.9638 7.252V4H98.2478V10H97.1198L97.0598 9.028C96.8518 9.404 96.5718 9.68 96.2198 9.856C95.8678 10.032 95.4518 10.12 94.9718 10.12ZM100.254 12.52V4H101.394L101.49 5.68L101.322 5.476C101.418 5.164 101.566 4.888 101.766 4.648C101.966 4.408 102.214 4.22 102.51 4.084C102.814 3.948 103.146 3.88 103.506 3.88C103.994 3.88 104.438 4.004 104.838 4.252C105.238 4.5 105.554 4.856 105.786 5.32C106.018 5.776 106.134 6.332 106.134 6.988C106.134 7.644 106.014 8.208 105.774 8.68C105.542 9.144 105.222 9.5 104.814 9.748C104.414 9.996 103.966 10.12 103.47 10.12C102.958 10.12 102.522 9.988 102.162 9.724C101.802 9.452 101.546 9.108 101.394 8.692L101.538 8.488V12.52H100.254ZM103.194 9.076C103.714 9.076 104.118 8.892 104.406 8.524C104.702 8.156 104.85 7.648 104.85 7C104.85 6.352 104.706 5.844 104.418 5.476C104.13 5.1 103.73 4.912 103.218 4.912C102.882 4.912 102.586 5 102.33 5.176C102.082 5.344 101.886 5.584 101.742 5.896C101.606 6.2 101.538 6.568 101.538 7C101.538 7.424 101.606 7.792 101.742 8.104C101.878 8.416 102.07 8.656 102.318 8.824C102.566 8.992 102.858 9.076 103.194 9.076ZM110.381 3.88C110.965 3.88 111.481 4.004 111.929 4.252C112.377 4.5 112.725 4.86 112.973 5.332C113.229 5.796 113.357 6.352 113.357 7C113.357 7.648 113.229 8.208 112.973 8.68C112.725 9.144 112.377 9.5 111.929 9.748C111.481 9.996 110.965 10.12 110.381 10.12C109.797 10.12 109.281 9.996 108.833 9.748C108.385 9.5 108.033 9.144 107.777 8.68C107.521 8.208 107.393 7.648 107.393 7C107.393 6.352 107.521 5.796 107.777 5.332C108.033 4.86 108.385 4.5 108.833 4.252C109.281 4.004 109.797 3.88 110.381 3.88ZM110.381 4.888C110.021 4.888 109.713 4.972 109.457 5.14C109.209 5.3 109.017 5.536 108.881 5.848C108.745 6.16 108.677 6.544 108.677 7C108.677 7.448 108.745 7.832 108.881 8.152C109.017 8.464 109.209 8.704 109.457 8.872C109.713 9.032 110.021 9.112 110.381 9.112C110.741 9.112 111.045 9.032 111.293 8.872C111.541 8.704 111.733 8.464 111.869 8.152C112.005 7.832 112.073 7.448 112.073 7C112.073 6.544 112.005 6.16 111.869 5.848C111.733 5.536 111.541 5.3 111.293 5.14C111.045 4.972 110.741 4.888 110.381 4.888Z" fill="white"/>
<path d="M47.2482 55.4353C45.7327 55.4379 44.2318 55.148 42.8317 54.5821C41.4316 54.0162 40.1601 53.1856 39.0903 52.138C39.0714 52.1192 39.0571 52.0964 39.0487 52.0714C39.0402 52.0463 39.0378 52.0197 39.0415 51.9936C39.0452 51.9675 39.0551 51.9426 39.0703 51.9208C39.0855 51.899 39.1056 51.8809 39.1291 51.8679C40.4163 51.1391 41.5999 50.2483 42.6493 49.2185C45.9757 45.9719 47.6389 41.9298 47.6389 37.0922C47.6389 32.1916 45.9757 28.1175 42.6493 24.87C39.3228 21.6224 35.148 19.9991 30.1246 20C25.1678 20 21.0262 21.6233 17.7001 24.87C14.374 28.1166 12.7109 32.1907 12.7109 37.0922C12.7109 41.9304 14.374 45.9723 17.7001 49.2181C21.0262 52.4638 25.1678 54.0872 30.1246 54.0881C30.3932 54.0881 30.6594 54.0827 30.9233 54.0732C30.9518 54.0723 30.9801 54.0782 31.0057 54.0906C31.0313 54.1029 31.0534 54.1212 31.07 54.1439C34.5653 58.8806 40.5039 62 47.2482 62C55.8244 62 63.1025 56.9571 65.7027 49.9574C65.7113 49.9338 65.7145 49.9087 65.7123 49.8838C65.71 49.8589 65.7022 49.8347 65.6895 49.8129C65.6768 49.7912 65.6595 49.7724 65.6387 49.7578C65.6179 49.7431 65.5941 49.7331 65.5689 49.7282L58.1183 48.3144C58.0783 48.3069 58.0367 48.3133 58.0009 48.3324C57.9651 48.3516 57.9373 48.3823 57.9223 48.4193C57.0632 50.4946 55.5878 52.2716 53.6856 53.5218C51.7834 54.7721 49.5415 55.4385 47.2482 55.4353ZM20.9435 37.0922C20.9435 34.3988 21.817 32.167 23.5641 30.3969C25.3111 28.6268 27.5146 27.7426 30.1745 27.7444C32.9021 27.7444 35.1228 28.629 36.8366 30.3982C38.5504 32.1675 39.4068 34.3992 39.4059 37.0936C39.4059 39.7567 38.5495 41.9724 36.8366 43.7407C35.1237 45.509 32.903 46.3945 30.1745 46.3972C27.5139 46.3972 25.3105 45.5044 23.5641 43.7187C21.8176 41.9329 20.9441 39.7241 20.9435 37.0922Z" fill="white"/>
<path d="M59.5486 40.0747C59.5107 40.0749 59.4737 40.0632 59.4432 40.0414C59.4126 40.0195 59.3901 39.9887 59.3788 39.9533C59.3676 39.918 59.3683 39.8801 59.3809 39.8452C59.3934 39.8103 59.4171 39.7803 59.4485 39.7595L62.1664 37.9405C63.7458 36.913 64.8593 35.8657 65.5071 34.7986C66.1548 33.7315 66.4787 32.556 66.4787 31.2722C66.4787 29.3157 65.7853 27.7053 64.3984 26.4409C63.0116 25.1766 60.992 24.5445 58.3398 24.5445C55.7282 24.5445 53.6785 25.2114 52.1908 26.5454C50.7341 27.8502 49.9611 29.6232 49.8719 31.8643C49.8707 31.9058 49.8844 31.9464 49.9109 31.9789C49.9373 32.0115 49.9747 32.0339 50.0163 32.0421L54.9446 32.9818C54.97 32.9865 54.9961 32.9857 55.0211 32.9795C55.0461 32.9733 55.0694 32.9618 55.0894 32.9459C55.1094 32.93 55.1256 32.91 55.1368 32.8874C55.1481 32.8647 55.1541 32.84 55.1546 32.8148C55.2173 30.7595 56.2483 29.7317 58.2475 29.7314C58.955 29.7314 59.5066 29.9289 59.9024 30.324C60.2983 30.719 60.4958 31.2032 60.4948 31.7765C60.4948 32.9817 59.6951 34.1573 58.0957 35.3034L50.635 40.7344C50.613 40.7504 50.595 40.7712 50.5827 40.7952C50.5704 40.8192 50.5639 40.8457 50.564 40.8726V44.8222C50.5639 44.8449 50.5685 44.8674 50.5773 44.8883C50.5862 44.9093 50.5992 44.9283 50.6156 44.9443C50.632 44.9603 50.6515 44.973 50.673 44.9817C50.6945 44.9903 50.7175 44.9947 50.7407 44.9947H66.786C66.8092 44.9947 66.8323 44.9903 66.8538 44.9817C66.8752 44.9731 66.8948 44.9604 66.9112 44.9443C66.9277 44.9283 66.9408 44.9093 66.9497 44.8883C66.9586 44.8674 66.9632 44.8449 66.9632 44.8222V40.2476C66.9632 40.2018 66.9445 40.1578 66.9113 40.1254C66.878 40.0929 66.833 40.0747 66.786 40.0747H59.5486Z" fill="white"/>
<path d="M75.556 38.9158C75.2152 38.9192 74.877 38.8563 74.5613 38.7307C74.2633 38.6119 73.9938 38.4339 73.7701 38.208C73.5535 37.9904 73.3844 37.7321 73.2732 37.4488L73.4116 37.2741L73.3221 38.7928H72.4294V29.7048H73.4495V33.9742L73.3221 33.7873C73.4925 33.3971 73.7795 33.0756 74.183 32.8229C74.5965 32.5671 75.0777 32.4351 75.5671 32.4433C76.079 32.4393 76.5821 32.5728 77.0213 32.8292C77.4723 33.0957 77.8387 33.4792 78.0797 33.9368C78.343 34.4171 78.4748 34.9979 78.4751 35.6793C78.4751 36.3514 78.3411 36.9301 78.0732 37.4155C77.8053 37.9009 77.4504 38.2722 77.0084 38.5294C76.5698 38.7859 76.0673 38.9196 75.556 38.9158ZM75.4536 38.0441C76.0829 38.0441 76.574 37.8284 76.9268 37.397C77.2795 36.9657 77.4561 36.3931 77.4564 35.6793C77.4564 34.9655 77.282 34.3929 76.9332 33.9616C76.5844 33.5302 76.0955 33.3146 75.4665 33.3146C75.0929 33.3071 74.7259 33.4112 74.4146 33.6131C74.1042 33.8219 73.8591 34.1105 73.7064 34.447C73.5363 34.8039 73.4513 35.2229 73.4513 35.7041C73.4513 36.1774 73.5342 36.5903 73.7 36.9427C73.8484 37.2749 74.0921 37.5581 74.4017 37.7581C74.7159 37.9523 75.0818 38.0517 75.4536 38.0441Z" fill="white"/>
<path d="M84.1522 34.7707C84.1522 34.306 84.0245 33.9472 83.7693 33.6941C83.514 33.4411 83.1526 33.3146 82.685 33.3146C82.2431 33.3146 81.869 33.4079 81.563 33.5946C81.257 33.7813 81.0317 34.0815 80.8871 34.4951L80.0566 33.9972C80.2264 33.5325 80.5411 33.1573 81.0006 32.8715C81.4601 32.5858 82.0291 32.4426 82.7076 32.442C83.1358 32.4364 83.5608 32.5146 83.9575 32.6721C84.3185 32.8144 84.6281 33.0583 84.847 33.3727C85.0638 33.6839 85.1715 34.0844 85.17 34.5739V37.5862C85.17 37.8848 85.3314 38.0349 85.6544 38.0364C85.8139 38.0367 85.9726 38.0158 86.1263 37.9743L86.0756 38.7582C85.9052 38.841 85.6841 38.8826 85.4122 38.8829C85.1836 38.8873 84.9569 38.8411 84.7492 38.7478C84.5547 38.6591 84.3934 38.5133 84.2878 38.3309C84.1771 38.1445 84.1217 37.9102 84.1217 37.628V37.5033L84.3769 37.5407C84.2858 37.8458 84.1058 38.1185 83.8587 38.3255C83.6153 38.5278 83.333 38.6809 83.0283 38.7757C82.7358 38.8688 82.4303 38.9171 82.1226 38.9189C81.765 38.9218 81.4101 38.8584 81.0767 38.7321C80.7694 38.6191 80.5017 38.4225 80.3053 38.1656C80.1137 37.9126 80.0181 37.5994 80.0184 37.226C80.0184 36.7613 80.1778 36.3775 80.4968 36.0746C80.8158 35.7718 81.2599 35.5663 81.8292 35.4582L84.3547 34.9729V35.7946L82.3012 36.2052C81.8844 36.2887 81.5741 36.4048 81.3702 36.5537C81.1662 36.7026 81.0643 36.91 81.0643 37.176C81.0612 37.2977 81.0879 37.4184 81.1423 37.5281C81.1966 37.6377 81.2769 37.7331 81.3766 37.8063C81.5845 37.9684 81.88 38.0493 82.2629 38.049C82.5021 38.0502 82.7403 38.0189 82.9706 37.9558C83.1888 37.8971 83.3943 37.8 83.5769 37.6695C83.7542 37.5421 83.8983 37.3759 83.9976 37.1841C84.1043 36.969 84.1569 36.7322 84.1508 36.4934L84.1522 34.7707Z" fill="white"/>
<path d="M87.6465 38.7911V32.5676H88.5393L88.6283 33.9634L88.4627 33.8283C88.5801 33.5232 88.7678 33.2486 89.0112 33.0255C89.2402 32.8227 89.5123 32.6718 89.808 32.5838C90.1117 32.4928 90.4278 32.4473 90.7455 32.4487C91.1763 32.4429 91.6031 32.5301 91.9954 32.704C92.3665 32.8699 92.6796 33.1384 92.8959 33.4762C93.1211 33.8247 93.2338 34.2687 93.2341 34.8081V38.7911H92.2136V35.1566C92.2136 34.468 92.0627 33.9888 91.761 33.7189C91.4593 33.4491 91.0872 33.314 90.6449 33.3137C90.3266 33.3165 90.0129 33.3889 89.7268 33.5253C89.4103 33.6755 89.1462 33.9136 88.9679 34.2097C88.7683 34.5252 88.6683 34.9484 88.668 35.4794V38.7902L87.6465 38.7911Z" fill="white"/>
<path d="M96.561 29.7048V38.791H95.5409V29.7048H96.561ZM101.14 32.5676L96.0526 37.5339V36.2894L99.8528 32.5676H101.14ZM98.4743 34.7459L101.293 38.791H100.056L97.6198 35.306L98.4743 34.7459Z" fill="white"/>
</svg>
