<svg width="36" height="36" viewBox="0 0 36 36" fill="none" xmlns="http://www.w3.org/2000/svg">
<path d="M7.62 25.7475C8.50251 23.8574 10.155 22.93 12.525 22.935H28.275L31.5 10.845H10.155C7.32739 10.8611 4.91776 8.79662 4.5 6M12 25.5C11.0895 25.5 10.2687 26.0488 9.92077 26.8903C9.57287 27.7318 9.76644 28.7 10.4111 29.343C11.0558 29.986 12.0246 30.1771 12.8651 29.827C13.7057 29.4769 14.2524 28.6547 14.25 27.7441C14.25 27.1479 14.0128 26.5762 13.5906 26.1552C13.1685 25.7342 12.5962 25.4985 12 25.5ZM24.75 25.5C23.8395 25.5 23.0187 26.0488 22.6708 26.8903C22.3229 27.7318 22.5164 28.7 23.1611 29.343C23.8058 29.986 24.7746 30.1771 25.6151 29.827C26.4557 29.4769 27.0024 28.6547 27 27.7441C27 27.1479 26.7628 26.5762 26.3406 26.1552C25.9185 25.7342 25.3462 25.4985 24.75 25.5ZM10.725 13.7325L12.525 22.935L10.725 13.7325Z" stroke="white" stroke-width="1.6" stroke-linecap="round" stroke-linejoin="round"/>
</svg>
