<svg width="32" height="32" viewBox="0 0 32 32" fill="none" xmlns="http://www.w3.org/2000/svg">
<path d="M13.0226 20.4361C12.2843 20.5661 11.628 20.9845 11.1984 21.5989C10.7688 22.2133 10.6011 22.9733 10.7324 23.7114L7.59519 24.2636L4.63989 7.41651L7.77715 6.86435C8.04744 8.40469 9.51525 9.43426 11.0556 9.16396C12.5959 8.89367 13.6255 7.42586 13.3552 5.88553L16.4924 5.33337L16.963 7.98122M27.3536 9.81965L24.3795 26.6667L21.2422 26.1146C21.4509 25.1047 21.0937 24.0614 20.31 23.3913C19.5264 22.7212 18.4402 22.5303 17.475 22.8932C16.5099 23.2561 15.8185 24.1153 15.6705 25.1357L12.5332 24.5836L15.5073 7.73651L18.6446 8.28867C18.4686 9.28509 18.8376 10.2997 19.6125 10.9503C20.3875 11.6009 21.4507 11.7887 22.4016 11.4429C23.3525 11.097 24.0467 10.2702 24.2226 9.27377L27.3536 9.81965Z" stroke="white" stroke-width="1.6" stroke-linecap="round" stroke-linejoin="round"/>
</svg>
